<svg width="64" height="64" viewBox="0 0 64 64" fill="none" xmlns="http://www.w3.org/2000/svg">
<rect width="64" height="64" rx="32" fill="#170F0B"/>
<g opacity="0.9" clip-path="url(#clip0_1008_37)">
<path d="M43.8705 20.791C43.8705 20.791 45.1889 20.9187 45.9968 21.1584C46.772 21.3884 47.2004 21.5664 47.9032 21.9667C48.8422 22.5014 48.9351 22.5981 50.0663 23.6934C51.1974 24.7888 52.004 26.2094 52.4859 27.9552C52.9072 29.4812 52.8526 30.8652 52.8526 32.4375C52.8526 33.723 52.4142 34.8256 52.046 36.038C51.4438 37.5164 50.5761 38.7288 49.443 39.6752C48.9097 40.145 48.2987 40.5369 47.61 40.8509C46.6462 41.2902 45.6551 41.53 44.6037 41.6591L33.6786 41.7326L31.4055 39.3813H43.0639C43.8119 39.2981 44.4935 39.1503 45.1903 38.8669C46.1117 38.4922 46.8816 37.9656 47.5 37.2871C48.4944 36.2389 49.1312 34.8481 49.4102 33.1148C49.5294 32.3744 48.9198 31.745 48.17 31.7517L41.2675 31.8129V29.535H49.443C49.4978 29.5292 49.51 29.3945 49.4797 29.1309C49.4494 28.8674 49.2639 27.8898 48.9664 27.147C48.7756 26.6706 48.6562 26.4035 48.3798 25.9713C47.9533 25.3041 47.6422 24.9582 47.0234 24.465C46.4313 23.993 46.045 23.7767 45.3369 23.5097C44.7584 23.2916 44.409 23.2302 43.7971 23.1424C43.5123 23.1015 43.0639 23.0689 43.0639 23.0689L28.9492 23.1424V20.8645L43.8705 20.791Z" fill="#B57900"/>
<path d="M11.207 20.8647H13.7V28.8005L22.6821 20.8647H26.8615L15.973 30.0129L20.1891 33.3562L30.2344 25.0531L42.4427 34.8625L39.2531 34.8993L30.2344 27.7718L21.8389 34.7156L30.271 41.6961L26.055 41.7329L13.7733 31.3723V41.8063H11.207V20.8647Z" fill="#B57900"/>
<path d="M28.2188 31.0781H29.9785V31.1883V32.2905V32.7681H28.2188V31.0781Z" fill="#B57900"/>
<path d="M30.5625 31.0781H32.3223V32.7681H30.5625V31.0781Z" fill="#B57900"/>
<path d="M28.2188 33.2095H29.9418H30.0518V34.973H29.9418H28.2188V33.2095Z" fill="#B57900"/>
<path d="M30.5625 33.2095H32.3223V34.973H30.5625V33.2095Z" fill="#B57900"/>
<path d="M52.012 38.0591C51.6317 39.0986 50.984 40.0538 50.2156 40.7043C49.0788 41.6187 47.6753 42.2053 46.2195 42.376C45.6222 42.446 44.6797 42.3944 44.6797 42.3944C44.6797 42.3944 45.6283 42.3137 46.2195 42.1739C46.8981 42.0135 48.3092 41.4391 48.3092 41.4391C50.067 40.6736 51.0054 39.6612 52.012 38.0591Z" fill="#B57900"/>
</g>
<defs>
<clipPath id="clip0_1008_37">
<rect width="42.0875" height="21.6946" fill="white" transform="translate(10.9141 20.7178)"/>
</clipPath>
</defs>
</svg>
