<svg width="36" height="36" viewBox="0 0 36 36" fill="none" xmlns="http://www.w3.org/2000/svg">
<path d="M9.71387 10.4883C8.75427 10.4883 7.97639 11.2663 7.97656 12.2259V12.2583C7.9869 12.8096 8.25852 13.3238 8.70897 13.643L8.71985 13.6507L16.6979 19.2139C17.3751 19.6863 18.2472 19.7452 18.9731 19.3911C19.0768 19.3404 19.1776 19.2814 19.2743 19.2139L27.252 13.6509C27.718 13.3259 27.9957 12.7936 27.9956 12.2255C27.9955 11.2661 27.2179 10.4883 26.2585 10.4883H9.71387Z" fill="#170F0B"/>
<path d="M27.9962 14.9619L20.1334 20.4448C18.8434 21.3444 17.1293 21.3444 15.8393 20.4448L7.97679 14.9621L7.97656 23.2501C7.97656 24.4939 8.98491 25.5023 10.2288 25.5023H25.7439C26.9877 25.5023 27.9961 24.4939 27.9961 23.2501L27.9962 14.9619Z" fill="#170F0B"/>
</svg>
