<svg width="36" height="36" viewBox="0 0 36 36" fill="none" xmlns="http://www.w3.org/2000/svg">
<rect width="36" height="36" rx="18" fill="white"/>
<path fill-rule="evenodd" clip-rule="evenodd" d="M18.1831 26.9558C16.4124 26.9558 15.5897 26.6953 14.1637 25.6537C13.2561 26.8258 10.3993 27.7376 10.2735 26.1746C10.2735 25.0036 10.0118 24.0169 9.72301 22.931C9.36962 21.6005 8.97656 20.1204 8.97656 17.9694C8.97656 12.8406 13.1671 8.98242 18.1363 8.98242C23.1042 8.98242 27 13.0281 27 18.0194C27 23.0099 22.9801 26.9559 18.1828 26.9559L18.1831 26.9558ZM18.2548 13.417C15.8372 13.2898 13.9507 14.9737 13.5346 17.6098C13.1897 19.793 13.8007 22.4527 14.3231 22.5866C14.5699 22.6496 15.2009 22.1371 15.5895 21.7464C16.2297 22.1628 16.9636 22.4858 17.7797 22.5282C20.2621 22.6589 22.4613 20.7087 22.5916 18.2168C22.722 15.7248 20.7372 13.5475 18.255 13.417H18.2548Z" fill="#170F0B"/>
</svg>
