<svg width="36" height="36" viewBox="0 0 36 36" fill="none" xmlns="http://www.w3.org/2000/svg">
<rect width="36" height="36" rx="18" fill="white"/>
<path d="M27.1378 23.8025C27.1378 24.1328 27.0644 24.4724 26.9084 24.8027C26.7524 25.1331 26.5505 25.4451 26.2844 25.7387C25.8348 26.2343 25.3393 26.5921 24.7795 26.8215C24.2289 27.051 23.6324 27.1702 22.9901 27.1702C22.0541 27.1702 21.0539 26.95 19.9986 26.5004C18.9433 26.0507 17.888 25.4451 16.8419 24.6834C15.7866 23.9126 14.7864 23.0592 13.832 22.114C12.8868 21.1597 12.0334 20.1595 11.2718 19.1133C10.5193 18.0672 9.91367 17.0211 9.4732 15.9842C9.03273 14.9381 8.8125 13.9378 8.8125 12.9835C8.8125 12.3595 8.92262 11.763 9.14285 11.2124C9.36309 10.6527 9.71179 10.1388 10.1981 9.67997C10.7854 9.10185 11.4278 8.81738 12.1068 8.81738C12.3638 8.81738 12.6207 8.87244 12.8501 8.98256C13.0887 9.09268 13.2998 9.25785 13.465 9.49644L15.5939 12.4971C15.7591 12.7265 15.8784 12.9376 15.9609 13.1395C16.0435 13.3322 16.0894 13.5249 16.0894 13.6992C16.0894 13.9195 16.0252 14.1397 15.8967 14.3508C15.7774 14.5618 15.6031 14.7821 15.3828 15.0023L14.6854 15.7272C14.5845 15.8282 14.5386 15.9475 14.5386 16.0943C14.5386 16.1677 14.5478 16.2319 14.5661 16.3054C14.5937 16.3788 14.6212 16.4338 14.6395 16.4889C14.8047 16.7917 15.0892 17.1863 15.4929 17.6635C15.9059 18.1406 16.3464 18.627 16.8235 19.1133C17.3191 19.5997 17.7962 20.0493 18.2826 20.4623C18.7598 20.866 19.1543 21.1413 19.4663 21.3065C19.5122 21.3249 19.5673 21.3524 19.6315 21.3799C19.7049 21.4074 19.7783 21.4166 19.8609 21.4166C20.0169 21.4166 20.1362 21.3616 20.2372 21.2606L20.9346 20.5724C21.164 20.343 21.3842 20.1686 21.5953 20.0585C21.8063 19.93 22.0174 19.8658 22.2468 19.8658C22.4211 19.8658 22.6047 19.9025 22.8066 19.9851C23.0084 20.0677 23.2195 20.187 23.4489 20.343L26.4863 22.4994C26.7249 22.6646 26.8901 22.8573 26.991 23.0867C27.0828 23.3161 27.1378 23.5456 27.1378 23.8025Z" fill="#170F0B"/>
</svg>
