<svg width="36" height="36" viewBox="0 0 36 36" fill="none" xmlns="http://www.w3.org/2000/svg">
<rect width="36" height="36" rx="18" fill="white"/>
<g clip-path="url(#clip0_2252_215)">
<g clip-path="url(#clip1_2252_215)">
<g clip-path="url(#clip2_2252_215)">
<path d="M26.2231 9.65474C25.9062 9.38202 25.4083 9.34299 24.8935 9.55268C24.3522 9.77309 9.56805 16.207 8.96625 16.4699C8.85679 16.5084 7.90082 16.8704 7.99929 17.6765C8.0872 18.4034 8.85552 18.7044 8.94934 18.7391L12.7077 20.0449C12.957 20.8871 13.8762 23.9942 14.0795 24.658C14.2063 25.0718 14.413 25.6156 14.7752 25.7275C15.093 25.8518 15.4091 25.7382 15.6136 25.5753L17.9114 23.4127L21.6208 26.348L21.7091 26.4016C21.961 26.5148 22.2023 26.5714 22.4327 26.5714C22.6105 26.5714 22.7813 26.5375 22.9444 26.4698C23.5001 26.2382 23.7224 25.7009 23.7457 25.64L26.5164 11.0274C26.6855 10.2469 26.4505 9.84985 26.2231 9.65474ZM16.0223 20.5672L14.7545 23.9977L13.4866 19.7095L23.2068 12.4197L16.0223 20.5672Z" fill="#170F0B"/>
</g>
</g>
</g>
<defs>
<clipPath id="clip0_2252_215">
<rect width="20.0012" height="17.1524" fill="white" transform="translate(8 9.41895)"/>
</clipPath>
<clipPath id="clip1_2252_215">
<rect width="20.0012" height="17.1524" fill="white" transform="translate(8 9.41895)"/>
</clipPath>
<clipPath id="clip2_2252_215">
<rect width="20.0112" height="17.1524" fill="white" transform="translate(7.99219 9.41895)"/>
</clipPath>
</defs>
</svg>
