<svg width="36" height="36" viewBox="0 0 36 36" fill="none" xmlns="http://www.w3.org/2000/svg">
<rect width="36" height="36" rx="18" fill="white"/>
<g clip-path="url(#clip0_2252_210)">
<g clip-path="url(#clip1_2252_210)">
<g clip-path="url(#clip2_2252_210)">
<path d="M30.9638 11.7735C31.1541 11.2123 30.9638 10.7998 30.0668 10.7998H27.0929C26.3366 10.7998 25.9897 11.1564 25.7994 11.5481C25.7994 11.5481 24.2868 14.8354 22.1443 16.9667C21.452 17.5871 21.137 17.7822 20.7597 17.7822C20.571 17.7822 20.2976 17.5871 20.2976 17.0243V11.7735C20.296 11.1004 20.077 10.7998 19.447 10.7998H14.7718C14.3002 10.7998 14.0156 11.1116 14.0156 11.409C14.0156 12.0469 15.0868 12.1956 15.1972 13.9944V17.8973C15.1972 18.7527 15.0245 18.9078 14.6455 18.9078C13.6382 18.9078 11.1855 15.6077 9.72895 11.8311C9.44595 11.0972 9.15975 10.8014 8.40027 10.8014H5.42634C4.57573 10.8014 4.40625 11.158 4.40625 11.5497C4.40625 12.2532 5.41355 15.7356 9.10059 20.3404C11.5581 23.4854 15.0197 25.1898 18.1711 25.1898C20.061 25.1898 20.2944 24.8109 20.2944 24.1585V21.781C20.2944 21.0247 20.4751 20.8712 21.0731 20.8712C21.5128 20.8712 22.269 21.0695 24.0342 22.5852C26.0504 24.3824 26.383 25.1882 27.5166 25.1882H30.4905C31.3395 25.1882 31.7648 24.8093 31.5202 24.0626C31.2532 23.3191 30.2907 22.2367 29.0116 20.9559C28.3176 20.2253 27.28 19.4402 26.9634 19.0469C26.5221 18.54 26.65 18.3162 26.9634 17.8669C26.9634 17.8669 30.5865 13.3213 30.9638 11.7735Z" fill="#170F0B"/>
</g>
</g>
</g>
<defs>
<clipPath id="clip0_2252_210">
<rect width="27.17" height="14.39" fill="white" transform="translate(4.41016 10.7998)"/>
</clipPath>
<clipPath id="clip1_2252_210">
<rect width="27.17" height="14.39" fill="white" transform="translate(4.41016 10.7998)"/>
</clipPath>
<clipPath id="clip2_2252_210">
<rect width="27.1811" height="14.39" fill="white" transform="translate(4.40625 10.7998)"/>
</clipPath>
</defs>
</svg>
