<svg width="216" height="40" viewBox="0 0 216 40" fill="none" xmlns="http://www.w3.org/2000/svg">
<path d="M154.686 10.0851C156.551 9.83575 157.638 9.84981 159.504 10.0851C160.072 10.1566 160.392 10.1954 160.95 10.3235C163.811 10.9806 165.867 12.2909 167.334 14.2567C168.546 15.8379 169.274 18.4566 168.779 21.1695C168.394 23.2795 167.58 24.9089 166.25 26.0562C163.906 28.1873 159.749 29.0668 155.409 28.6784C153.976 28.5501 153.166 28.3973 151.795 27.9632C150.471 27.544 148.543 26.533 148.543 26.533L150.109 24.1492C152.097 25.7591 155.329 26.8048 158.782 26.2946C159.842 26.1378 160.458 26.0242 161.432 25.5795C162.415 25.1305 163.019 24.8465 163.72 24.03C164.211 23.4582 164.445 23.0739 164.684 22.3614C164.907 21.6927 164.925 20.5736 164.925 20.5736H155.77V18.4282H164.925V17.5939C164.433 15.8554 163.51 14.5443 162.154 13.6607C160.468 12.4688 157.979 12.0715 154.686 12.4688C151.394 12.8661 149.988 14.1375 149.988 14.1375L148.784 11.9921C148.784 11.9921 150.007 11.3542 150.832 11.0386C152.279 10.4845 153.148 10.2907 154.686 10.0851Z" fill="#B57900"/>
<path d="M83.7383 10.3232H87.111V17.9513H89.1587L97.8314 10.3232H101.686L92.1701 18.7856L102.77 28.0822L98.3132 28.2014L88.9178 19.8583H87.111V28.2014H83.7383V10.3232Z" fill="#B57900"/>
<path d="M103.734 10.3232H107.228L114.214 20.335L119.996 10.3232H123.489C123.489 10.3232 117.948 20.5734 114.575 25.9368C113.919 26.9809 112.695 27.7494 111.564 28.2014C109.861 28.8822 106.866 28.4398 106.866 28.4398L106.143 25.9368C106.143 25.9368 108.312 26.2944 109.637 26.056C110.962 25.8176 111.793 24.2552 112.407 22.838L103.734 10.3232Z" fill="#B57900"/>
<path d="M126.863 10.3232H142.522V12.707H130.236V17.7129H139.511C146.976 19.0204 146.612 27.3308 139.27 28.2014H126.863V10.3232ZM130.236 19.8583V26.056H138.427C142.154 25.6756 142.479 20.3971 138.668 19.8583H130.236Z" fill="#B57900"/>
<path d="M173.355 10.3232H183.353C183.353 10.3232 184.535 10.4243 185.28 10.5616C186.043 10.7021 186.484 10.7611 187.208 11.0384C190.182 12.1784 191.993 14.858 191.183 18.0704C190.466 20.9102 188.047 22.2006 185.28 22.7188L176.728 22.9571V28.2014H173.355V10.3232ZM176.728 12.707V20.5734H183.474C185.197 20.0049 187.06 19.5833 187.569 17.7129C187.891 16.5306 187.736 15.6569 187.087 14.614C186.335 13.4037 183.955 12.707 183.955 12.707H176.728Z" fill="#B57900"/>
<path d="M202.026 10.3232H206.844L215.998 27.8438H211.903L209.614 23.6723H198.773L196.726 27.8438H192.871L202.026 10.3232ZM204.194 13.6605L200.098 21.2885H208.53L204.194 13.6605Z" fill="#B57900"/>
<g opacity="0.9" clip-path="url(#clip0_4022_411)">
<path d="M59.4484 0.132324C59.4484 0.132324 61.8264 0.362549 63.2837 0.794991C64.6818 1.20985 65.4545 1.53096 66.7222 2.25286C68.4158 3.21729 68.5835 3.39176 70.6237 5.36739C72.6639 7.34303 74.1186 9.90534 74.988 13.0543C75.7478 15.8066 75.6492 18.3029 75.6492 21.1389C75.6492 23.4575 74.8586 25.4463 74.1945 27.633C73.1082 30.2996 71.5433 32.4864 69.4995 34.1934C68.5376 35.0407 67.4355 35.7476 66.1932 36.314C64.455 37.1064 62.6673 37.539 60.7709 37.7718L41.0654 37.9044L36.9656 33.6633H57.9936C59.3428 33.5133 60.572 33.2467 61.8289 32.7355C63.4909 32.0596 64.8795 31.1098 65.9949 29.8861C67.7886 27.9954 68.9371 25.4869 69.4404 22.3606C69.6553 21.0251 68.5559 19.8899 67.2033 19.9019L54.7535 20.0123V15.9038H69.4995C69.5983 15.8932 69.6203 15.6502 69.5657 15.1749C69.511 14.6995 69.1765 12.9362 68.6399 11.5965C68.2958 10.7372 68.0803 10.2555 67.5819 9.47593C66.8125 8.27255 66.2513 7.6487 65.1352 6.759C64.0673 5.90776 63.3705 5.51761 62.0934 5.03606C61.0499 4.6426 60.4198 4.53177 59.3161 4.37339C58.8023 4.29966 57.9936 4.24086 57.9936 4.24086L32.5352 4.37339V0.264858L59.4484 0.132324Z" fill="#B57900"/>
<path d="M0.53125 0.265137H5.02781V14.5787L21.2287 0.265137H28.767L9.12762 16.7655L16.7321 22.7958L34.8506 7.81954L56.8705 25.5128L51.1176 25.579L34.8506 12.7233L19.7078 25.2477L34.9167 37.8384L27.3122 37.9046L5.16006 19.2174V38.0372H0.53125V0.265137Z" fill="#B57900"/>
<path d="M31.2148 18.687H34.3889V18.8858V20.8738V21.7353H31.2148V18.687Z" fill="#B57900"/>
<path d="M35.4453 18.687H38.6194V21.7353H35.4453V18.687Z" fill="#B57900"/>
<path d="M31.2148 22.5308H34.3228H34.5211V25.7116H34.3228H31.2148V22.5308Z" fill="#B57900"/>
<path d="M35.4453 22.5308H38.6194V25.7116H35.4453V22.5308Z" fill="#B57900"/>
<path d="M74.1275 31.2778C73.4416 33.1527 72.2734 34.8757 70.8874 36.049C68.837 37.6983 66.3054 38.7563 63.6796 39.0642C62.6024 39.1905 60.9023 39.0973 60.9023 39.0973C60.9023 39.0973 62.6133 38.9518 63.6796 38.6997C64.9037 38.4103 67.4488 37.3744 67.4488 37.3744C70.6194 35.9936 72.3119 34.1675 74.1275 31.2778Z" fill="#B57900"/>
</g>
<defs>
<clipPath id="clip0_4022_411">
<rect width="75.9125" height="39.1302" fill="white"/>
</clipPath>
</defs>
</svg>
