<svg width="28" height="28" viewBox="0 0 28 28" fill="none" xmlns="http://www.w3.org/2000/svg">
<g clip-path="url(#clip0_2115_2706)">
<path d="M5.47432 1.48556C5.92475 1.16597 6.0308 0.541759 5.71122 0.0913327C5.39163 -0.359094 4.7674 -0.465147 4.31699 -0.145561C2.67983 1.01607 1.25327 2.45469 0.105376 4.10225C-0.210344 4.5554 -0.0989303 5.17869 0.354216 5.4944C0.807363 5.81012 1.43066 5.69871 1.74636 5.24556C2.76234 3.78735 4.02526 2.51373 5.47432 1.48556Z" fill="#B57900"/>
<path d="M24.3561 -0.145561C23.9057 -0.465147 23.2814 -0.359094 22.9618 0.0913327C22.6422 0.541759 22.7484 1.16597 23.1988 1.48556C24.6478 2.51373 25.9108 3.78735 26.9268 5.24556C27.2425 5.69871 27.8657 5.81012 28.3189 5.4944C28.7721 5.17869 28.8834 4.5554 28.5677 4.10225C27.4198 2.45469 25.9933 1.01607 24.3561 -0.145561Z" fill="#B57900"/>
<path d="M14.3367 0.666016C6.97323 0.666016 1.00391 6.63535 1.00391 13.9988C1.00391 21.3624 6.97323 27.3318 14.3367 27.3318C21.7003 27.3318 27.6697 21.3624 27.6697 13.9988C27.6697 6.63535 21.7003 0.666016 14.3367 0.666016ZM13.3365 6.66618C13.3365 6.1139 13.7842 5.66618 14.3365 5.66618C14.8887 5.66618 15.3365 6.1139 15.3365 6.66618V13.585L18.8147 17.0632C19.2053 17.4538 19.2053 18.087 18.8147 18.4774C18.4242 18.8679 17.791 18.8679 17.4005 18.4774L13.6294 14.7063L13.3365 13.9991V6.66618Z" fill="#B57900"/>
</g>
<defs>
<clipPath id="clip0_2115_2706">
<rect width="28" height="28" fill="white"/>
</clipPath>
</defs>
</svg>
