<svg width="60" height="60" viewBox="0 0 60 60" fill="none" xmlns="http://www.w3.org/2000/svg">
<rect width="60" height="60" rx="30" transform="matrix(4.37114e-08 1 1 -4.37114e-08 0 2.62268e-06)" fill="white"/>
<path d="M39.6983 29.1945L31.6924 20.3334C31.2896 19.8889 30.6371 19.8889 30.2343 20.3334C30.0377 20.5451 29.9268 20.8356 29.9268 21.1389C29.9268 21.4423 30.0377 21.7328 30.2343 21.9445L36.4794 28.8601L21.0317 28.8601C20.4619 28.8601 20 29.3704 20 30C20 30.6296 20.4619 31.1399 21.0317 31.1399L36.4794 31.1399L30.2343 38.0555C30.0381 38.2671 29.9288 38.5582 29.9317 38.8611C29.9304 39.1636 30.0395 39.454 30.2343 39.6666C30.6371 40.1111 31.2896 40.1111 31.6924 39.6666L39.6983 30.8056C40.1006 30.3605 40.1006 29.6395 39.6983 29.1945Z" fill="#211B17"/>
</svg>
