<svg width="28" height="28" viewBox="0 0 28 28" fill="none" xmlns="http://www.w3.org/2000/svg">
<path d="M4.35691 5.25C3.23847 5.25 2.33183 6.15678 2.33203 7.27522V7.313C2.34408 7.95555 2.66066 8.55484 3.18567 8.92692L3.19835 8.93584L12.497 15.4199C13.2863 15.9705 14.3027 16.0392 15.1488 15.6264C15.2697 15.5674 15.3871 15.4986 15.4998 15.4199L24.7981 8.93607C25.3413 8.55733 25.6649 7.93695 25.6648 7.2748C25.6647 6.15652 24.7584 5.25 23.6401 5.25H4.35691Z" fill="white"/>
<path d="M25.6655 10.4648L16.5012 16.8553C14.9976 17.9038 12.9998 17.9038 11.4963 16.8553L2.3323 10.4651L2.33203 20.1249C2.33203 21.5746 3.50728 22.7499 4.95703 22.7499H23.0404C24.4901 22.7499 25.6654 21.5746 25.6654 20.1249L25.6655 10.4648Z" fill="white"/>
</svg>
