<svg width="19" height="19" viewBox="0 0 19 19" xmlns="http://www.w3.org/2000/svg">
<path d="M9.5.5A9 9 0 0 0 6.2 17.86c-.05-.76-.01-1.66.19-2.45l1.16-4.91s-.29-.59-.29-1.45c0-1.36.79-2.38 1.77-2.38.83 0 1.24.63 1.24 1.38 0 .84-.54 2.1-.82 3.26-.23.97.49 1.77 1.45 1.77 1.74 0 3.08-1.84 3.08-4.49 0-2.35-1.69-3.99-4.1-3.99-2.79 0-4.43 2.09-4.43 4.25 0 .84.32 1.74.73 2.23.08.1.09.18.07.28l-.27 1.1c-.04.18-.15.22-.34.13-1.27-.59-2.06-2.43-2.06-3.91 0-3.18 2.31-6.11 6.67-6.11 3.5 0 6.22 2.49 6.22 5.83 0 3.48-2.19 6.28-5.23 6.28-1.02 0-1.98-.53-2.31-1.16l-.63 2.39c-.23.88-.84 1.98-1.25 2.65A9 9 0 1 0 9.5.5Z"/>
</svg>
