<svg width="19" height="19" viewBox="0 0 19 19" fill="none" xmlns="http://www.w3.org/2000/svg">
<path fill-rule="evenodd" clip-rule="evenodd" d="M9.20655 17.9733C7.43585 17.9733 6.61313 17.7129 5.18718 16.6713C4.27954 17.8434 1.42273 18.7552 1.29696 17.1922C1.29696 16.0211 1.03527 15.0345 0.74645 13.9485C0.393056 12.6181 0 11.1379 0 8.98693C0 3.8582 4.19056 0 9.15977 0C14.1276 0 18.0234 4.04569 18.0234 9.03693C18.0234 14.0275 14.0036 17.9735 9.20621 17.9735L9.20655 17.9733ZM9.27825 4.43456C6.86059 4.30734 4.97413 5.99123 4.55802 8.62734C4.2131 10.8105 4.82413 13.4703 5.34651 13.6042C5.59329 13.6672 6.22431 13.1547 6.61296 12.764C7.25314 13.1804 7.98705 13.5033 8.80316 13.5458C11.2856 13.6765 13.4847 11.7263 13.6151 9.23436C13.7454 6.74242 11.7607 4.56504 9.27842 4.43456H9.27825Z" fill="#170F0B"/>
</svg>
